<?xml version="1.0" encoding="utf-8"?>
<!-- Generator: Adobe Illustrator 26.1.0, SVG Export Plug-In . SVG Version: 6.00 Build 0)  -->
<svg version="1.1" id="Layer_1" xmlns="http://www.w3.org/2000/svg" xmlns:xlink="http://www.w3.org/1999/xlink" x="0px" y="0px"
	 viewBox="0 0 246 49" style="enable-background:new 0 0 246 49;" xml:space="preserve">
<style type="text/css">
	.st0{fill:#84D8DD;}
	.st1{fill:#2ECAD2;}
	.st2{fill:#147296;}
	.st3{fill:#9D9D9C;}
</style>
<path id="Path_631" class="st0" d="M66,37.1c-0.4-1-0.9-1.9-1.5-2.8l-0.1-0.1c-1.6-2.4-3.7-4.5-6.1-6.2l-3.9-2.8l0,0
	c-0.7-0.5-1.2-1.4-1.2-2.3c0-1.6,1.4-2.9,3-2.9h9c0.5,0,0.9,0.4,0.9,0.9c0,0,0,0,0,0L66,37.1z"/>
<path id="Path_632" class="st1" d="M23.9,15.9c1.2-2.7,2.8-5.2,4.9-7.3c1-1,2-1.9,3.1-2.6c-2.8-1.4-5.8-2.1-8.9-2.1
	c-11.6,0-21,9.5-21,21.1v19.8c0,0.5,0.4,0.9,0.9,0.9h7.7c0.5,0,0.9-0.4,0.9-0.9V29c0-2.7,2.1-4.9,4.8-5c1.6,0,3.2,0.8,4.1,2.2
	l0.1,0.2l2.1,2.8c-0.3-1.4-0.4-2.8-0.4-4.2C22.1,21.9,22.7,18.8,23.9,15.9z"/>
<path id="Path_633" class="st0" d="M45.2,45.6c-11.5,0-20.8-9.3-20.8-20.8S33.6,3.9,45.2,3.9l20,0c0.5,0,0.9,0.4,0.9,0.9
	c0,0,0,0,0,0v7.7c0,0.5-0.4,0.9-0.9,0.9H49.5c-2.7,0-4.9,2.1-5,4.8c0,1.6,0.8,3.1,2.1,4l0.2,0.1l9.9,7.2c2.9,2.2,4.5,3.7,6.1,6.2
	c0,0,0.1,0.1,0.1,0.1c1.7,2.7,2.8,5.7,3.1,8.8l0,0c0,0.5-0.4,0.9-0.9,0.9H45.2z"/>
<path id="Path_634" class="st2" d="M23.9,15.9c1.2-2.7,2.8-5.2,4.9-7.3c1-1,2-1.9,3.1-2.6c-2.8-1.4-5.8-2.1-8.9-2.1
	c-11.6,0-21,9.5-21,21.1v19.8c0,0.5,0.4,0.9,0.9,0.9h7.7c0.5,0,0.9-0.4,0.9-0.9V29c0-2.7,2.1-4.9,4.8-5c1.6,0,3.2,0.8,4.1,2.2
	l0.1,0.2l2.1,2.8c-0.3-1.4-0.4-2.8-0.4-4.2C22.1,21.9,22.7,18.8,23.9,15.9z"/>
<path id="Path_635" class="st2" d="M43.7,24.7c0-7.1-3.6-13.8-9.7-17.6c-9.7,6.2-12.6,19-6.5,28.8c1.5,2.4,3.6,4.5,5.9,6.1l0,0
	l0.5,0.3l0,0c2.9,1.8,6.2,2.9,9.7,3.2L43.7,24.7z"/>
<path id="Path_636" class="st3" d="M76.3,4.4c0-0.1,0-0.2,0.1-0.3c0.1-0.1,0.2-0.1,0.3-0.1h2.5c0.1,0,0.2,0,0.3,0.1
	c0.1,0.1,0.2,0.1,0.2,0.2l3.6,5.2c1.2,1.7,2.4,3.4,3.6,5.2V4.3c0-0.1,0.1-0.2,0.2-0.3c0.1-0.1,0.2-0.1,0.3-0.1h2.1
	c0.1,0,0.3,0,0.4,0.1c0.1,0.1,0.2,0.2,0.2,0.3v15c0,0.3-0.2,0.4-0.5,0.4h-2.3c-0.2,0-0.3-0.1-0.4-0.3c-1.3-1.8-2.5-3.6-3.8-5.4
	c-1.2-1.8-2.5-3.6-3.7-5.5v10.7c0,0.1,0,0.3-0.1,0.4c-0.1,0.1-0.2,0.1-0.4,0.1h-2c-0.1,0-0.3,0-0.4-0.1c-0.1-0.1-0.1-0.2-0.1-0.3
	L76.3,4.4z"/>
<path id="Path_637" class="st3" d="M105.7,19.4c0,0.1,0,0.1-0.1,0.2c-0.1,0-0.1,0.1-0.2,0.1h-1.6c-0.2,0-0.4-0.1-0.5-0.2
	c-0.1-0.1-0.2-0.3-0.2-0.5l-0.1-1c-0.2,0.2-0.4,0.5-0.6,0.7c-0.2,0.2-0.5,0.4-0.8,0.6c-0.4,0.2-0.7,0.3-1.1,0.4
	c-0.5,0.1-0.9,0.2-1.4,0.1c-0.8,0-1.5-0.1-2.2-0.5c-0.6-0.3-1.2-0.7-1.6-1.1c-0.5-0.5-0.8-1.2-1-1.9c-0.2-0.7-0.3-1.5-0.3-2.3V6.9
	c0-0.2,0-0.4,0.2-0.6c0.1-0.1,0.3-0.2,0.5-0.2h1.6c0.2,0,0.4,0,0.6,0.2C96.9,6.5,97,6.7,97,6.9V14c0,0.4,0.1,0.7,0.2,1.1
	c0.1,0.4,0.3,0.7,0.5,1c0.2,0.3,0.5,0.5,0.9,0.7c0.4,0.2,0.8,0.3,1.2,0.3c0.3,0,0.7-0.1,1-0.2c0.4-0.1,0.7-0.3,1-0.5
	c0.3-0.2,0.5-0.5,0.7-0.9c0.2-0.4,0.3-0.8,0.3-1.2V6.8c0-0.1,0-0.2,0.1-0.4c0-0.1,0.1-0.2,0.2-0.3c0.1-0.1,0.2-0.1,0.3-0.1h1.8
	c0.2,0,0.4,0,0.5,0.2c0.1,0.1,0.2,0.3,0.2,0.5v12.3C105.9,19.2,105.8,19.3,105.7,19.4L105.7,19.4z"/>
<path id="Path_638" class="st3" d="M118.7,16.2c0.1-0.1,0.2-0.1,0.3-0.1h0.2c0.1,0,0.2,0.1,0.3,0.2l0.3,0.4l0.8,1.1
	c0,0,0.1,0.1,0.1,0.2c0,0,0,0.1,0,0.1c0,0.1,0,0.2-0.1,0.3c-0.1,0.1-0.2,0.2-0.3,0.3c-0.6,0.4-1.3,0.8-2,1.1
	c-0.7,0.3-1.5,0.4-2.3,0.4c-0.6,0-1.2-0.1-1.8-0.2c-0.6-0.2-1.1-0.4-1.7-0.7c-0.5-0.3-0.9-0.7-1.3-1.1c-0.4-0.4-0.8-0.9-1.1-1.4
	c-0.3-0.5-0.6-1.1-0.7-1.7c-0.3-1.2-0.3-2.5,0-3.8c0.2-0.6,0.4-1.1,0.7-1.7c0.3-0.5,0.7-1,1.1-1.4c0.9-0.9,1.9-1.5,3.1-1.8
	c0.6-0.2,1.2-0.3,1.8-0.2c0.8,0,1.5,0.1,2.2,0.4c0.7,0.2,1.3,0.6,1.9,1l0,0c0.1,0.1,0.2,0.2,0.3,0.3c0.1,0.1,0.1,0.2,0.1,0.3v0.2
	c0,0.1,0,0.1-0.1,0.2l-0.9,1.3c-0.1,0.2-0.3,0.3-0.5,0.3c-0.2,0-0.3-0.1-0.4-0.2c-0.4-0.3-0.8-0.6-1.3-0.7c-0.5-0.2-1-0.3-1.5-0.3
	c-0.5,0-1.1,0.1-1.6,0.3c-0.5,0.2-0.9,0.5-1.3,0.9c-0.4,0.4-0.7,0.9-0.9,1.4c-0.4,1.1-0.4,2.3,0,3.3c0.2,0.5,0.5,1,0.9,1.4
	c0.4,0.4,0.8,0.7,1.3,0.9c1,0.4,2.1,0.4,3.1,0C117.9,16.8,118.3,16.5,118.7,16.2z"/>
<path id="Path_639" class="st3" d="M123.5,2.8c0-0.2,0-0.3,0.2-0.5c0.1-0.1,0.3-0.2,0.5-0.2h1.9c0.2,0,0.3,0.1,0.4,0.2
	c0.1,0.1,0.2,0.3,0.2,0.5v16.4c0,0.2-0.1,0.3-0.2,0.5c-0.1,0.1-0.3,0.2-0.5,0.2h-1.8c-0.2,0-0.4,0-0.5-0.2c-0.1-0.1-0.2-0.3-0.1-0.5
	L123.5,2.8z"/>
<path id="Path_640" class="st3" d="M141.3,18.3c-0.6,0.5-1.3,1-2.1,1.3c-0.8,0.3-1.6,0.5-2.4,0.5c-1.9,0-3.7-0.7-5-2
	c-0.7-0.6-1.2-1.4-1.6-2.2c-0.4-0.9-0.6-1.8-0.6-2.8c0-0.6,0.1-1.2,0.2-1.8c0.3-1.2,0.9-2.2,1.7-3.1c0.8-0.9,1.9-1.5,3-1.8
	c0.6-0.2,1.2-0.3,1.9-0.3c0.5,0,1.1,0.1,1.6,0.2c0.5,0.1,1,0.3,1.5,0.6c0.5,0.2,0.9,0.5,1.3,0.9c0.4,0.3,0.8,0.7,1.1,1.2
	c0.4,0.6,0.7,1.2,0.9,1.9c0.2,0.7,0.3,1.5,0.3,2.3c0,0.2,0,0.3,0,0.5c0,0.1-0.1,0.2-0.1,0.3c-0.1,0.1-0.2,0.2-0.3,0.2
	c-0.2,0-0.4,0.1-0.6,0.1h-9.5c0.1,0.5,0.3,0.9,0.5,1.4c0.3,0.4,0.6,0.7,0.9,1c0.4,0.3,0.7,0.5,1.2,0.6c0.4,0.1,0.8,0.2,1.3,0.2
	c0.3,0,0.6,0,0.9-0.1c0.3-0.1,0.6-0.1,0.8-0.3c0.2-0.1,0.5-0.2,0.7-0.4c0.2-0.1,0.4-0.3,0.6-0.4l0,0c0.1-0.1,0.2-0.1,0.2-0.2
	c0.1,0,0.2-0.1,0.2-0.1c0.1,0,0.1,0,0.2,0.1c0.1,0.1,0.2,0.1,0.2,0.2l0.5,0.6l0.3,0.4c0.1,0.1,0.1,0.2,0.2,0.3
	c0,0.1,0.1,0.1,0.1,0.2C141.7,18,141.5,18.2,141.3,18.3z M136.6,8.7c-0.4,0-0.8,0.1-1.2,0.2c-0.4,0.2-0.8,0.4-1.1,0.6
	c-0.3,0.3-0.6,0.6-0.9,0.9c-0.2,0.4-0.4,0.7-0.5,1.1h7.6c-0.1-0.4-0.3-0.8-0.5-1.2c-0.2-0.4-0.5-0.7-0.8-0.9
	c-0.3-0.3-0.7-0.5-1.1-0.6C137.5,8.7,137,8.7,136.6,8.7L136.6,8.7z"/>
<path id="Path_641" class="st3" d="M158.3,19.4c0,0.1,0,0.1-0.1,0.2c-0.1,0-0.1,0.1-0.2,0.1h-1.6c-0.2,0-0.4-0.1-0.5-0.2
	c-0.1-0.1-0.2-0.3-0.2-0.5l-0.1-1c-0.2,0.2-0.4,0.5-0.6,0.7c-0.2,0.2-0.5,0.4-0.8,0.6c-0.4,0.2-0.7,0.3-1.1,0.4
	c-0.5,0.1-0.9,0.2-1.4,0.1c-0.8,0-1.5-0.1-2.2-0.5c-0.6-0.3-1.2-0.7-1.6-1.1c-0.5-0.5-0.8-1.2-1-1.9c-0.2-0.7-0.3-1.5-0.3-2.3V6.9
	c0-0.2,0-0.4,0.2-0.6c0.1-0.1,0.3-0.2,0.5-0.2h1.6c0.2,0,0.4,0,0.6,0.2c0.1,0.2,0.2,0.4,0.1,0.6V14c0,0.4,0.1,0.7,0.2,1.1
	c0.1,0.4,0.3,0.7,0.5,1c0.2,0.3,0.5,0.5,0.9,0.7c0.4,0.2,0.8,0.3,1.2,0.3c0.3,0,0.7-0.1,1-0.2c0.4-0.1,0.7-0.3,1-0.5
	c0.3-0.2,0.5-0.5,0.7-0.9c0.2-0.4,0.3-0.8,0.3-1.2V6.8c0-0.1,0-0.2,0.1-0.4c0-0.1,0.1-0.2,0.2-0.3c0.1-0.1,0.2-0.1,0.3-0.1h1.8
	c0.2,0,0.4,0,0.5,0.2c0.1,0.1,0.2,0.3,0.2,0.5v12.3C158.5,19.2,158.4,19.3,158.3,19.4z"/>
<path id="Path_642" class="st3" d="M163.6,16c0.1,0.2,0.3,0.4,0.6,0.6c0.2,0.2,0.5,0.3,0.7,0.4c0.2,0.1,0.4,0.2,0.7,0.2
	c0.2,0,0.3,0.1,0.5,0.1c0.2,0,0.5,0,0.7-0.1c0.3,0,0.5-0.1,0.8-0.2c0.2-0.1,0.4-0.3,0.6-0.5c0.2-0.2,0.3-0.5,0.2-0.7
	c0-0.2-0.1-0.5-0.2-0.7c-0.1-0.2-0.3-0.3-0.5-0.4c-0.2-0.1-0.5-0.2-0.8-0.3l-0.9-0.2c-0.7-0.2-1.3-0.4-1.9-0.7
	c-0.5-0.3-0.9-0.6-1.3-1c-0.3-0.3-0.6-0.8-0.8-1.2c-0.2-0.5-0.2-0.9-0.2-1.4c0-1.1,0.5-2.1,1.3-2.8c0.4-0.4,0.9-0.6,1.5-0.8
	c0.6-0.2,1.3-0.3,1.9-0.3c0.5,0,0.9,0,1.3,0.1c0.4,0.1,0.7,0.2,1.1,0.4c0.3,0.2,0.7,0.4,0.9,0.7c0.3,0.3,0.6,0.6,0.9,0.9
	c0.1,0.1,0.1,0.2,0.2,0.4c0,0.1-0.1,0.3-0.2,0.4l-0.4,0.3l-0.4,0.4c-0.1,0.1-0.3,0.2-0.4,0.3c-0.1,0.1-0.2,0.1-0.3,0.1
	c-0.2,0-0.4-0.1-0.5-0.3c-0.1-0.2-0.3-0.3-0.5-0.5c-0.1-0.1-0.3-0.3-0.5-0.3c-0.2-0.1-0.4-0.2-0.6-0.2c-0.2,0-0.4-0.1-0.7-0.1
	c-0.2,0-0.4,0-0.6,0.1c-0.2,0.1-0.4,0.1-0.6,0.2c-0.2,0.1-0.3,0.3-0.4,0.4c-0.1,0.2-0.2,0.3-0.2,0.5c0,0.2,0.1,0.4,0.2,0.6
	c0.2,0.2,0.3,0.3,0.6,0.4c0.2,0.1,0.5,0.2,0.7,0.3l0.7,0.2c0.6,0.2,1.2,0.4,1.8,0.6c0.5,0.2,1,0.5,1.4,0.9c0.4,0.3,0.7,0.8,0.9,1.2
	c0.2,0.5,0.3,1.1,0.3,1.6c0,0.6-0.1,1.2-0.4,1.8c-0.3,0.5-0.6,1-1.1,1.3c-0.5,0.4-1.1,0.7-1.6,0.8c-0.7,0.2-1.4,0.3-2.1,0.3
	c-0.5,0-0.9,0-1.4-0.1c-0.5-0.1-0.9-0.2-1.3-0.5c-0.4-0.2-0.8-0.5-1.2-0.8c-0.4-0.3-0.7-0.7-0.9-1.1c-0.1-0.1-0.2-0.3-0.2-0.5
	c0-0.1,0-0.2,0.1-0.2c0.1-0.1,0.1-0.1,0.2-0.2l1.2-0.9c0.1-0.1,0.2-0.1,0.3-0.1c0.1,0,0.2,0,0.3,0.1C163.4,15.8,163.5,15.9,163.6,16
	L163.6,16z"/>
<path id="Path_643" class="st3" d="M86.2,38.8c0-0.1,0-0.2,0.1-0.3c0.1-0.1,0.2-0.1,0.3-0.1h1.8c0.1,0,0.2,0,0.3,0.1
	c0.1,0.1,0.2,0.2,0.2,0.3v4.9c0,0.1,0,0.2-0.1,0.2c-0.1,0.1-0.1,0.2-0.2,0.2l0,0c-0.3,0.2-0.7,0.5-1.1,0.6c-0.4,0.2-0.8,0.3-1.2,0.5
	c-0.4,0.1-0.9,0.2-1.3,0.3c-0.4,0.1-0.9,0.1-1.3,0.1c-0.7,0-1.5-0.1-2.2-0.3c-0.7-0.2-1.3-0.5-1.9-0.8c-1.2-0.7-2.2-1.7-2.9-2.9
	c-0.7-1.2-1.1-2.7-1.1-4.1c0-0.7,0.1-1.5,0.3-2.2c0.2-0.7,0.5-1.3,0.8-2c0.4-0.6,0.8-1.2,1.3-1.6c0.5-0.5,1-0.9,1.7-1.3
	c0.6-0.4,1.3-0.6,2-0.8c0.7-0.2,1.4-0.3,2.2-0.3c0.5,0,1,0,1.5,0.1c0.5,0.1,1,0.2,1.4,0.4l0.6,0.3c0.2,0.1,0.5,0.2,0.7,0.4
	c0.2,0.1,0.4,0.2,0.6,0.4c0.1,0.1,0.2,0.2,0.2,0.4c0,0.1,0,0.2-0.1,0.3L88.5,32c-0.1,0.2-0.2,0.3-0.3,0.5c-0.1,0.2-0.2,0.3-0.3,0.5
	l-0.3,0.3c-0.1,0.1-0.2,0.1-0.2,0.1h-0.2c-0.1,0-0.1-0.1-0.2-0.1c-0.5-0.3-1-0.6-1.5-0.7c-0.6-0.2-1.1-0.3-1.7-0.3
	c-1.4,0-2.8,0.6-3.7,1.6c-0.5,0.5-0.8,1.1-1.1,1.7c-0.3,0.6-0.4,1.3-0.4,2c0,0.7,0.1,1.4,0.4,2c0.2,0.6,0.6,1.2,1,1.7
	c0.5,0.5,1,0.9,1.6,1.1c0.6,0.3,1.3,0.4,2,0.4c0.3,0,0.5,0,0.8-0.1c0.2,0,0.5-0.1,0.7-0.2c0.2-0.1,0.4-0.1,0.6-0.2
	c0.1-0.1,0.3-0.1,0.4-0.2V38.8z"/>
<path id="Path_644" class="st3" d="M92.6,28.5c0-0.2,0-0.3,0.2-0.5c0.1-0.1,0.3-0.2,0.5-0.2h1.9c0.2,0,0.3,0.1,0.4,0.2
	c0.1,0.1,0.2,0.3,0.2,0.5v16.3c0,0.2,0,0.4-0.2,0.5c-0.1,0.1-0.3,0.2-0.5,0.2h-1.8c-0.2,0-0.4,0-0.5-0.2c-0.1-0.1-0.2-0.3-0.1-0.5
	V28.5z"/>
<path id="Path_645" class="st3" d="M98.8,38.7c0-3.9,3.1-7,7-7c1.3,0,2.5,0.3,3.6,1c0.5,0.3,1,0.7,1.4,1.1c1.3,1.3,2.1,3.1,2.1,5
	c0,0.6-0.1,1.3-0.2,1.9c-0.2,0.6-0.4,1.1-0.7,1.7c-0.3,0.5-0.7,1-1.1,1.4c-0.4,0.4-0.9,0.8-1.4,1.1c-0.5,0.3-1.1,0.5-1.7,0.7
	c-0.6,0.2-1.2,0.3-1.9,0.2c-1.2,0-2.5-0.4-3.5-1c-0.5-0.3-1-0.7-1.4-1.1c-0.4-0.4-0.8-0.9-1.1-1.4c-0.3-0.5-0.6-1.1-0.7-1.7
	C98.9,39.9,98.8,39.3,98.8,38.7z M101.8,38.7c0,0.6,0.1,1.1,0.3,1.6c0.4,1,1.1,1.8,2.1,2.2c0.5,0.2,1,0.3,1.6,0.3
	c0.5,0,1.1-0.1,1.6-0.3c0.5-0.2,0.9-0.5,1.2-0.9c0.4-0.4,0.6-0.8,0.8-1.3c0.4-1,0.4-2.2,0-3.2c-0.4-1-1.1-1.8-2.1-2.3
	c-0.5-0.2-1-0.3-1.6-0.3c-0.5,0-1.1,0.1-1.6,0.3c-0.5,0.2-0.9,0.5-1.3,0.9c-0.4,0.4-0.6,0.9-0.8,1.4
	C101.9,37.6,101.8,38.1,101.8,38.7L101.8,38.7z"/>
<path id="Path_646" class="st3" d="M118.9,44.8c0,0.2-0.1,0.3-0.2,0.5c-0.1,0.1-0.3,0.2-0.4,0.2h-1.6c-0.4,0-0.7-0.2-0.7-0.6V28.5
	c0-0.2,0.1-0.3,0.2-0.5c0.1-0.1,0.3-0.2,0.4-0.2h1.8c0.2,0,0.4,0.1,0.5,0.2c0.1,0.1,0.2,0.3,0.2,0.5v4.9c0.5-0.5,1.1-1,1.8-1.3
	c0.7-0.3,1.5-0.5,2.3-0.5c0.9,0,1.8,0.2,2.7,0.5c0.8,0.4,1.5,0.9,2.2,1.5c2.6,2.8,2.6,7.1,0,9.9c-0.6,0.6-1.4,1.1-2.2,1.5
	c-0.8,0.4-1.8,0.6-2.7,0.5c-0.4,0-0.8,0-1.2-0.1c-0.8-0.2-1.5-0.5-2.1-1c-0.3-0.2-0.6-0.5-0.8-0.7L118.9,44.8z M126.9,38.7
	c0-0.6-0.1-1.1-0.3-1.6c-0.4-1-1.1-1.8-2.1-2.3c-0.5-0.2-1-0.3-1.6-0.3c-0.6,0-1.1,0.1-1.6,0.3c-0.5,0.2-0.9,0.5-1.3,0.9
	c-0.4,0.4-0.7,0.9-0.9,1.4c-0.2,0.5-0.3,1.1-0.3,1.6v0.1c0,0.5,0.1,1.1,0.3,1.6c0.2,0.5,0.5,0.9,0.9,1.3c0.4,0.4,0.8,0.7,1.3,0.9
	c0.5,0.2,1,0.3,1.6,0.3c0.5,0,1.1-0.1,1.6-0.3c0.5-0.2,0.9-0.5,1.3-0.9c0.4-0.4,0.6-0.8,0.8-1.3C126.8,39.8,126.9,39.2,126.9,38.7
	L126.9,38.7z"/>
<path id="Path_647" class="st3" d="M146.6,44.8c0,0.1,0,0.2-0.1,0.3c-0.1,0.1-0.1,0.1-0.2,0.2c-0.1,0-0.2,0.1-0.3,0.1h-1.7
	c-0.2,0-0.4,0-0.5-0.2c-0.1-0.1-0.2-0.3-0.2-0.5l-0.1-0.9c-0.3,0.3-0.5,0.5-0.8,0.7c-0.3,0.2-0.6,0.4-1,0.6
	c-0.4,0.2-0.7,0.3-1.1,0.4c-0.4,0.1-0.8,0.1-1.2,0.1c-0.6,0-1.2-0.1-1.9-0.2c-0.6-0.2-1.2-0.4-1.7-0.7c-0.5-0.3-1-0.7-1.4-1.1
	c-0.4-0.4-0.8-0.9-1.1-1.4c-0.3-0.5-0.5-1.1-0.7-1.7c-0.3-1.2-0.3-2.5,0-3.7c0.2-0.6,0.4-1.2,0.7-1.7c0.3-0.5,0.7-1,1.1-1.4
	c0.4-0.4,0.9-0.8,1.4-1.1c0.5-0.3,1.1-0.5,1.7-0.7c0.6-0.2,1.2-0.3,1.9-0.2c0.4,0,0.9,0,1.3,0.1c0.4,0.1,0.8,0.2,1.2,0.4
	c0.4,0.2,0.7,0.4,1,0.6c0.3,0.2,0.6,0.5,0.8,0.8l0.1-1.2c0-0.1,0.1-0.2,0.1-0.3c0-0.1,0.1-0.1,0.1-0.2c0.1,0,0.1-0.1,0.2-0.1
	c0.1,0,0.2,0,0.3,0h1.4c0.1,0,0.2,0.1,0.3,0.1c0.1,0,0.2,0.1,0.2,0.2c0.1,0.1,0.1,0.2,0.1,0.3L146.6,44.8z M135.5,38.7
	c0,0.6,0.1,1.1,0.3,1.6c0.2,0.5,0.5,1,0.8,1.3c0.4,0.4,0.8,0.7,1.2,0.9c0.5,0.2,1,0.3,1.6,0.3c0.6,0,1.1-0.1,1.6-0.3
	c1-0.4,1.8-1.2,2.2-2.2c0.4-1,0.4-2.2,0-3.2c-0.2-0.5-0.5-1-0.9-1.3c-0.4-0.4-0.8-0.7-1.3-0.9c-0.5-0.2-1.1-0.3-1.6-0.3
	c-0.5,0-1.1,0.1-1.6,0.3c-0.5,0.2-0.9,0.5-1.2,0.9c-0.4,0.4-0.6,0.8-0.8,1.3C135.6,37.6,135.5,38.1,135.5,38.7z"/>
<path id="Path_648" class="st3" d="M150,28.5c0-0.2,0-0.3,0.1-0.5c0.1-0.1,0.3-0.2,0.5-0.2h1.9c0.2,0,0.3,0.1,0.4,0.2
	c0.1,0.1,0.2,0.3,0.2,0.5v16.3c0,0.2,0,0.4-0.2,0.5c-0.1,0.1-0.3,0.2-0.5,0.2h-1.8c-0.2,0-0.4,0-0.5-0.2c-0.1-0.1-0.2-0.3-0.1-0.5
	L150,28.5z"/>
</svg>
